<?xml version="1.0" encoding="UTF-8"?>
<svg version="1.1" xmlns="http://www.w3.org/2000/svg" width="1080" height="1080">
<path d="M0 0 C1.31529917 -0.00465992 2.63059834 -0.00931984 3.98575506 -0.01412097 C7.62351196 -0.02658033 11.26103304 -0.02050347 14.89879079 -0.01128729 C18.86144152 -0.00456055 22.82405251 -0.01525209 26.78669471 -0.02368313 C33.7275329 -0.03604454 40.66830349 -0.03726474 47.60914898 -0.0311327 C57.93062059 -0.02203837 68.25202972 -0.03007632 78.57349653 -0.04142394 C97.0089806 -0.06109196 115.44443656 -0.06343798 133.87992862 -0.05822874 C150.01499593 -0.05367177 166.15005211 -0.05427048 182.28511906 -0.06006908 C184.44935854 -0.06082595 186.61359803 -0.06158193 188.77783751 -0.06233703 C192.0391485 -0.06348222 195.30045949 -0.0646321 198.56177047 -0.06579627 C228.88351973 -0.07650168 259.20526529 -0.08122612 289.52701569 -0.07332611 C291.2415976 -0.07288035 291.2415976 -0.07288035 292.99081753 -0.07242559 C302.27324894 -0.06997664 311.55568031 -0.06736506 320.83811168 -0.06474145 C357.04454358 -0.05463937 393.25092911 -0.06299353 429.45735455 -0.086236 C470.1370304 -0.1123078 510.81667834 -0.12515671 551.49636286 -0.11804825 C555.83387672 -0.11733219 560.17139059 -0.1166578 564.50890446 -0.1160078 C565.5769075 -0.115838 566.64491055 -0.11566819 567.74527732 -0.11549323 C583.8675582 -0.11319019 599.98981314 -0.1211675 616.1120882 -0.13429928 C634.44767272 -0.1492072 652.78319648 -0.15005814 671.1187797 -0.13222837 C681.3783674 -0.1226625 691.6378134 -0.12410611 701.89739165 -0.14146306 C708.75362991 -0.15195153 715.60976023 -0.14785354 722.46598786 -0.13198302 C726.37035686 -0.12335079 730.2744482 -0.12092744 734.17880294 -0.13625234 C738.39207425 -0.15263329 742.60468112 -0.13785955 746.81794739 -0.12025452 C748.01978825 -0.12990503 749.2216291 -0.13955554 750.45988938 -0.14949849 C768.46742094 0.00489343 784.14959873 6.91740678 796.8711729 19.48969173 C803.80711443 26.84298217 809.18557163 34.83108102 812.5977354 44.38031673 C812.84542567 45.03123812 813.09311593 45.68215951 813.34831196 46.35280579 C816.56709974 56.12982896 816.01766806 66.14452937 815.98541546 76.31215572 C815.98959128 78.45244586 815.99507016 80.59273379 816.00173527 82.73301762 C816.01617599 88.59859728 816.01194937 94.46403626 816.00456846 100.32962358 C815.9998357 106.66174057 816.01234764 112.99382718 816.02258587 119.32593441 C816.03878416 131.00888162 816.04121961 142.69177266 816.03628088 154.37472765 C816.03171968 165.1702537 816.03232789 175.96576312 816.03812122 186.76128864 C816.0388781 188.21066235 816.03963408 189.66003606 816.04038917 191.10940978 C816.04153439 193.29362565 816.04268427 195.47784153 816.04384841 197.6620574 C816.05455012 217.96336715 816.0592821 238.26467137 816.05137825 258.56598282 C816.05093249 259.71337068 816.05093249 259.71337068 816.05047772 260.88393809 C816.04802891 267.09523657 816.04541726 273.30653498 816.04279359 279.51783338 C816.03269294 303.74114518 816.04104445 327.96438765 816.06428814 352.18768978 C816.09037632 379.41925203 816.10320444 406.65077255 816.09610039 433.88234776 C816.09538436 436.78753101 816.09470997 439.69271427 816.09405994 442.59789753 C816.09389014 443.3131972 816.09372033 444.02849688 816.09354537 444.7654723 C816.09124504 455.55020733 816.09920671 466.33490353 816.11235142 477.11962986 C816.1272794 489.38914657 816.12770997 501.65854431 816.11028051 513.92806426 C816.10176735 520.1859843 816.09962896 526.44373103 816.11493206 532.70164204 C816.12877931 538.43527617 816.12401505 544.16858854 816.10469282 549.90220406 C816.10093267 551.97142331 816.10385516 554.04066834 816.11430448 556.10986463 C816.21409181 577.39076103 811.87483108 595.08457737 796.4883604 610.65375423 C782.35003158 623.98963737 766.46658483 629.86804175 747.19547081 629.76063347 C745.88017164 629.76529339 744.56487247 629.76995331 743.20971575 629.77475443 C739.57195885 629.7872138 735.93443777 629.78113694 732.29668002 629.77192076 C728.33402929 629.76519402 724.3714183 629.77588556 720.4087761 629.7843166 C713.46793791 629.79667801 706.52716732 629.79789821 699.58632183 629.79176617 C689.26485022 629.78267184 678.94344109 629.79070979 668.62197428 629.80205741 C650.18649021 629.82172543 631.75103425 629.82407145 613.31554219 629.81886221 C597.18047488 629.81430524 581.0454187 629.81490395 564.91035175 629.82070255 C562.74611227 629.82145942 560.58187278 629.8222154 558.4176333 629.8229705 C555.15632231 629.82411569 551.89501132 629.82526557 548.63370034 629.82642974 C518.31195108 629.83713515 487.99020552 629.84185959 457.66845512 629.83395958 C456.52540052 629.83366241 455.38234591 629.83336523 454.20465328 629.83305905 C444.92222187 629.83061011 435.6397905 629.82799853 426.35735913 629.82537492 C390.15092723 629.81527284 353.9445417 629.823627 317.73811626 629.84686947 C277.05844041 629.87294127 236.37879247 629.88579018 195.69910794 629.87868172 C191.36159409 629.87796566 187.02408022 629.87729127 182.68656635 629.87664127 C181.61856331 629.87647146 180.55056026 629.87630166 179.45019349 629.8761267 C163.32791261 629.87382366 147.20565767 629.88180097 131.08338261 629.89493275 C112.74779809 629.90984067 94.41227433 629.9106916 76.07669111 629.89286184 C65.81710341 629.88329597 55.55765741 629.88473958 45.29807916 629.90209652 C38.4418409 629.912585 31.58571058 629.90848701 24.72948295 629.89261649 C20.82511395 629.88398426 16.92102261 629.88156091 13.01666787 629.8968858 C8.80339656 629.91326676 4.59078969 629.89849302 0.37752342 629.88088799 C-0.82431744 629.8905385 -2.02615829 629.90018901 -3.26441857 629.91013196 C-21.27195013 629.75574004 -36.95412792 622.84322669 -49.6757021 610.27094173 C-56.61164362 602.9176513 -61.99010082 594.92955245 -65.4022646 585.38031673 C-65.77379999 584.40393465 -65.77379999 584.40393465 -66.15284115 583.40782768 C-69.37162893 573.63080451 -68.82219725 563.61610409 -68.78994465 553.44847775 C-68.79412047 551.30818761 -68.79959935 549.16789968 -68.80626446 547.02761585 C-68.82070518 541.16203619 -68.81647856 535.2965972 -68.80909765 529.43100989 C-68.80436489 523.0988929 -68.81687683 516.76680629 -68.82711506 510.43469906 C-68.84331335 498.75175185 -68.8457488 487.06886081 -68.84081007 475.38590582 C-68.83624887 464.59037977 -68.83685708 453.79487035 -68.84265041 442.99934483 C-68.84340729 441.54997112 -68.84416327 440.1005974 -68.84491836 438.65122369 C-68.84606358 436.46700782 -68.84721346 434.28279194 -68.8483776 432.09857607 C-68.85907931 411.79726632 -68.86381129 391.4959621 -68.85590744 371.19465065 C-68.85561027 370.42972541 -68.85531309 369.66480017 -68.85500692 368.87669537 C-68.8525581 362.6653969 -68.84994645 356.45409849 -68.84732278 350.24280009 C-68.83722213 326.01948829 -68.84557364 301.79624582 -68.86881733 277.57294369 C-68.89490551 250.34138144 -68.90773363 223.10986092 -68.90062958 195.87828571 C-68.89991355 192.97310246 -68.89923916 190.0679192 -68.89858913 187.16273594 C-68.89841933 186.44743627 -68.89824952 185.73213659 -68.89807456 184.99516117 C-68.89577423 174.21042614 -68.9037359 163.42572993 -68.91688061 152.64100361 C-68.93180859 140.3714869 -68.93223916 128.10208916 -68.9148097 115.8325692 C-68.90629654 109.57464917 -68.90415815 103.31690244 -68.91946125 97.05899143 C-68.9333085 91.3253573 -68.92854424 85.59204493 -68.90922201 79.85842941 C-68.90546186 77.78921016 -68.90838435 75.71996513 -68.91883367 73.65076884 C-69.018621 52.36987244 -64.67936027 34.6760561 -49.2928896 19.10687923 C-35.15456077 5.7709961 -19.27111402 -0.10740828 0 0 Z " fill="#4180DB" transform="translate(178.40226459503174,224.61968326568604)"/>
<path d="M0 0 C0.33 0 0.66 0 1 0 C1.01710978 44.79423432 1.03301495 89.58846899 1.04234314 134.38270569 C1.0424812 135.04514428 1.04261925 135.70758286 1.04276149 136.39009535 C1.04575405 150.78493076 1.04852428 165.17976621 1.05106533 179.57460171 C1.05231272 186.63331195 1.05360927 193.69202219 1.05493164 200.75073242 C1.05512778 201.80440038 1.05512778 201.80440038 1.05532788 202.87935456 C1.05959305 225.66821654 1.0671072 248.45707605 1.07629722 271.24593653 C1.08598691 295.31743179 1.0919936 319.38892542 1.09408849 343.46042258 C1.09546407 357.88926506 1.09981651 372.31810044 1.10791647 386.74694074 C1.11318188 396.62672812 1.11480476 406.50651181 1.11350138 416.3863005 C1.11285768 422.0956555 1.11387911 427.80499807 1.11920547 433.51435089 C1.12403787 438.73198562 1.12433971 443.94959943 1.12089889 449.16723508 C1.12047304 451.06360684 1.12177012 452.95997985 1.12488318 454.8563491 C1.12884452 457.41652168 1.12676505 459.97661683 1.12304783 462.53678799 C1.12567484 463.28820333 1.12830186 464.03961867 1.13100848 464.81380418 C1.1141458 469.8858542 1.1141458 469.8858542 0 471 C-1.65019466 471.09797816 -3.30461714 471.12523006 -4.9577179 471.12534916 C-6.04050553 471.12785268 -7.12329317 471.1303562 -8.23889256 471.13293558 C-10.04903796 471.12942383 -10.04903796 471.12942383 -11.89575195 471.12584114 C-13.16963996 471.12729458 -14.44352797 471.12874802 -15.75601864 471.13024551 C-19.32409714 471.13417112 -22.8921489 471.1317932 -26.46022701 471.12846755 C-30.32982991 471.12594692 -34.19942847 471.12918434 -38.06903076 471.13171089 C-44.86162565 471.13533571 -51.6542126 471.13520499 -58.44680786 471.13266373 C-68.54731496 471.12889509 -78.64781532 471.13080774 -88.74832237 471.13387203 C-106.78348445 471.13914947 -124.818643 471.13867674 -142.85380542 471.13579312 C-158.63626129 471.13328194 -174.41871585 471.13261882 -190.20117188 471.13381577 C-191.24626348 471.13389215 -192.29135509 471.13396854 -193.36811614 471.13404724 C-197.61001186 471.13435855 -201.85190757 471.13467695 -206.09380329 471.135007 C-245.92196909 471.13806904 -285.75013264 471.13528772 -325.57829809 471.1299101 C-360.99751244 471.12516416 -396.41672319 471.12558878 -431.8359375 471.13037109 C-471.58920344 471.1357206 -511.34246739 471.13785192 -551.09573364 471.13475883 C-555.33009847 471.13443809 -559.5644633 471.13412525 -563.79882812 471.13381577 C-565.36285043 471.13369715 -565.36285043 471.13369715 -566.95846915 471.13357614 C-582.73468311 471.13243654 -598.51089562 471.13377288 -614.28710938 471.13629532 C-632.21741925 471.1391478 -650.14772504 471.13845427 -668.0780344 471.13301457 C-678.12474391 471.13006752 -688.17144455 471.12990205 -698.21815383 471.13366075 C-704.91624975 471.13589123 -711.61433851 471.1345293 -718.31243336 471.13015598 C-722.13724752 471.12776104 -725.96204396 471.12699702 -729.7868576 471.13056196 C-733.89266945 471.13435008 -737.99843716 471.13052566 -742.10424805 471.12584114 C-743.91439345 471.12935289 -743.91439345 471.12935289 -745.76110744 471.13293558 C-747.3852889 471.12918031 -747.3852889 471.12918031 -749.0422821 471.12534916 C-749.98277751 471.1252814 -750.92327291 471.12521365 -751.89226818 471.12514383 C-754 471 -754 471 -755 470 C-755.09881796 467.51358584 -755.13177962 465.05494854 -755.12304783 462.56802273 C-755.12420167 461.77671 -755.12535552 460.98539727 -755.12654433 460.17010537 C-755.12921834 457.48426833 -755.12468243 454.79848971 -755.12025452 452.11265564 C-755.12069006 450.18138587 -755.12156465 448.25011616 -755.12284368 446.31884676 C-755.12509199 440.9851621 -755.1210628 435.65149731 -755.11606562 430.31781518 C-755.11176609 424.5761295 -755.11320719 418.83444502 -755.1139679 413.09275818 C-755.11449345 403.13602874 -755.1113434 393.17930584 -755.10573006 383.22257805 C-755.09761927 368.82663961 -755.09500027 354.43070435 -755.09374207 340.03476388 C-755.09155088 316.68097035 -755.08489756 293.32718031 -755.07543945 269.97338867 C-755.0662598 247.28100604 -755.05917385 224.58862435 -755.05493164 201.89624023 C-755.05480011 201.19715359 -755.05466859 200.49806695 -755.05453308 199.77779587 C-755.05321459 192.75748433 -755.05193877 185.73717279 -755.05069422 178.71686124 C-755.04815779 164.41480218 -755.04533653 150.11274318 -755.04234314 135.8106842 C-755.04206841 134.49705295 -755.04179369 133.18342169 -755.04151063 131.82998342 C-755.03233496 88.55332091 -755.01660079 45.27666022 -755 2 C-753.90324429 2.93454551 -752.80729409 3.87003638 -751.71166992 4.8059082 C-751.10127365 5.32675491 -750.49087738 5.84760162 -749.86198425 6.38423157 C-746.36635243 9.4176254 -743.00726435 12.59902749 -739.63085938 15.76367188 C-737.3468603 17.89015378 -735.1346923 19.90222174 -732.60546875 21.73828125 C-731.81076172 22.36283203 -731.81076172 22.36283203 -731 23 C-731 23.66 -731 24.32 -731 25 C-730.45472656 25.22558594 -729.90945313 25.45117188 -729.34765625 25.68359375 C-726.30198649 27.39139859 -723.94658416 29.67037331 -721.4375 32.0625 C-717.50883794 35.74520521 -713.52377309 39.2619129 -709.3125 42.625 C-705.01232209 46.08236765 -701.17001499 49.78192702 -697.328125 53.734375 C-693.94371792 57.02792552 -690.28216542 59.93513256 -686.578125 62.859375 C-684 65 -684 65 -681.359375 67.703125 C-679.1429851 70.19409867 -679.1429851 70.19409867 -676 71 C-676 71.66 -676 72.32 -676 73 C-675.4225 73.226875 -674.845 73.45375 -674.25 73.6875 C-671.40469122 75.34726345 -670.06346666 77.42066667 -668 80 C-666.15750044 81.71558154 -664.25353879 83.34474058 -662.33984375 84.98046875 C-659.68247314 87.27405907 -657.09103432 89.63177307 -654.5 92 C-651.28306639 94.93700707 -648.04866916 97.84271749 -644.75 100.6875 C-642.28241819 102.8260709 -639.95820146 105.0291453 -637.6875 107.375 C-633.99244987 111.13723286 -629.92981237 114.37368265 -625.828125 117.6796875 C-622.28448882 120.58703541 -618.88781467 123.6320561 -615.50390625 126.72265625 C-613.73554838 128.3310067 -611.94990697 129.92045191 -610.15234375 131.49609375 C-609.23582031 132.30175781 -608.31929687 133.10742188 -607.375 133.9375 C-606.11816406 135.03384766 -606.11816406 135.03384766 -604.8359375 136.15234375 C-603 138 -603 138 -603 140 C-602.443125 140.061875 -601.88625 140.12375 -601.3125 140.1875 C-597.99056852 141.35466511 -596.40018909 143.43235585 -594 146 C-589.21143291 151.05250386 -584.07597817 155.43215999 -578.6484375 159.7890625 C-575.73035537 162.22510156 -573.11852416 164.84116579 -570.48828125 167.578125 C-568.54125354 169.43827746 -566.30698067 170.62828176 -564 172 C-562.66104368 173.66215268 -561.32869858 175.32963607 -560 177 C-558.00913335 178.83710053 -555.96794876 180.59916823 -553.90234375 182.3515625 C-552 184 -552 184 -550.40625 185.625 C-548.95200148 187.16503684 -548.95200148 187.16503684 -546.5625 188.375 C-543.61852735 190.24190948 -542.16892155 192.27335577 -540 195 C-538.00913335 196.83710053 -535.96794876 198.59916823 -533.90234375 200.3515625 C-532 202 -532 202 -530.44140625 203.6484375 C-528.92795754 205.25636164 -528.92795754 205.25636164 -526 206 C-526 206.66 -526 207.32 -526 208 C-525.34 208 -524.68 208 -524 208 C-522.77592503 209.45565672 -521.55624699 210.9156288 -520.375 212.40625 C-518.88181237 214.23536089 -518.88181237 214.23536089 -516.1875 216.25 C-515.465625 216.8275 -514.74375 217.405 -514 218 C-514 218.66 -514 219.32 -514 220 C-513.44570313 220.06058594 -512.89140625 220.12117187 -512.3203125 220.18359375 C-508.97512453 221.36060433 -507.29741644 223.49530357 -504.875 226.0625 C-501.43863375 229.63225038 -498.00711812 232.9169039 -494.0625 235.9375 C-489.49710229 239.46268051 -485.55392085 243.38223749 -481.53808594 247.50097656 C-477.47202498 251.62963243 -473.1213176 255.25131435 -468.58203125 258.85546875 C-465.26728767 261.60856138 -462.32845624 264.64770329 -459.328125 267.734375 C-455.94371792 271.02792552 -452.28216542 273.93513256 -448.578125 276.859375 C-446 279 -446 279 -443.32421875 281.6796875 C-441.14664909 284.06060666 -441.14664909 284.06060666 -438.5625 285.375 C-435.52091632 287.30380916 -433.68375076 289.58405914 -431.42578125 292.35546875 C-429.81106519 294.21792206 -427.98322623 295.55071929 -426 297 C-426 297.66 -426 298.32 -426 299 C-424.92685547 299.33451172 -424.92685547 299.33451172 -423.83203125 299.67578125 C-420.33808698 301.3095014 -418.34495906 303.39928319 -415.6875 306.1875 C-411.90160131 310.09494965 -408.05701206 313.83800825 -403.9140625 317.3671875 C-402.53822185 318.54086381 -401.18086406 319.7363352 -399.8359375 320.9453125 C-399.12695312 321.58210938 -398.41796875 322.21890625 -397.6875 322.875 C-397.05199219 323.44992187 -396.41648437 324.02484375 -395.76171875 324.6171875 C-393.93952679 326.20738006 -393.93952679 326.20738006 -391 327 C-391 327.66 -391 328.32 -391 329 C-390.40445312 329.25652344 -389.80890625 329.51304687 -389.1953125 329.77734375 C-386.80303629 331.10969687 -385.57271801 332.43368605 -383.875 334.5625 C-381.79096366 337.21025666 -381.79096366 337.21025666 -379 339 C-379 339.66 -379 340.32 -379 341 C-378.01 341 -377.02 341 -376 341 C-376 340.01 -376 339.02 -376 338 C-375.34 338 -374.68 338 -374 338 C-374 337.34 -374 336.68 -374 336 C-372.3203125 334.2734375 -372.3203125 334.2734375 -370.125 332.375 C-369.04605469 331.42753906 -369.04605469 331.42753906 -367.9453125 330.4609375 C-366 329 -366 329 -364 329 C-364 328.34 -364 327.68 -364 327 C-362.28048026 325.46148234 -360.49812503 323.99268241 -358.6875 322.5625 C-355.63971046 320.14418856 -352.73988463 317.75638996 -350 315 C-349.195625 314.525625 -348.39125 314.05125 -347.5625 313.5625 C-344.91349062 312.0852823 -344.91349062 312.0852823 -342.8125 309.8125 C-342.214375 309.214375 -341.61625 308.61625 -341 308 C-340.34 308 -339.68 308 -339 308 C-338.93296875 307.43410156 -338.8659375 306.86820313 -338.796875 306.28515625 C-337.68173078 303.08731622 -335.78501582 301.65376383 -333.25 299.4375 C-332.38890625 298.67308594 -331.5278125 297.90867187 -330.640625 297.12109375 C-328 295 -328 295 -325.234375 293.41015625 C-322.69354936 292.13646864 -322.69354936 292.13646864 -322 289 C-317.54285714 285 -317.54285714 285 -315 285 C-315 284.34 -315 283.68 -315 283 C-313.390625 281.34375 -313.390625 281.34375 -311.25 279.5 C-310.55390625 278.8915625 -309.8578125 278.283125 -309.140625 277.65625 C-307.15539208 276.12023037 -305.28127955 275.0276034 -303 274 C-303 273.34 -303 272.68 -303 272 C-297.52380952 267 -297.52380952 267 -295 267 C-295 266.34 -295 265.68 -295 265 C-293.63671875 263.625 -293.63671875 263.625 -291.6875 262 C-288.22982451 259.06250578 -284.84755259 256.06275384 -281.5 253 C-279.66712813 251.33282586 -277.83381499 249.66613669 -276 248 C-274.80697266 246.91332031 -274.80697266 246.91332031 -273.58984375 245.8046875 C-272.87957031 245.16789063 -272.16929687 244.53109375 -271.4375 243.875 C-270.81746094 243.31554687 -270.19742187 242.75609375 -269.55859375 242.1796875 C-268 241 -268 241 -266 241 C-266 240.34 -266 239.68 -266 239 C-264.3203125 237.2734375 -264.3203125 237.2734375 -262.125 235.375 C-261.40570312 234.74335937 -260.68640625 234.11171875 -259.9453125 233.4609375 C-258 232 -258 232 -256 232 C-256 231.34 -256 230.68 -256 230 C-254.3203125 228.2734375 -254.3203125 228.2734375 -252.125 226.375 C-251.40570312 225.74335937 -250.68640625 225.11171875 -249.9453125 224.4609375 C-248 223 -248 223 -246 223 C-246 222.34 -246 221.68 -246 221 C-244.390625 219.34375 -244.390625 219.34375 -242.25 217.5 C-241.55390625 216.8915625 -240.8578125 216.283125 -240.140625 215.65625 C-238.15539208 214.12023037 -236.28127955 213.0276034 -234 212 C-234 211.34 -234 210.68 -234 210 C-232.54894875 208.73330362 -231.03646906 207.53660763 -229.5 206.375 C-225.17061641 203.01726784 -221.33989354 199.4605423 -217.59375 195.46875 C-216 194 -216 194 -214 194 C-214 193.34 -214 192.68 -214 192 C-209.52941176 188 -209.52941176 188 -207 188 C-207 187.34 -207 186.68 -207 186 C-204.16569712 183.06768088 -200.98958094 180.55513077 -197.4375 178.5625 C-194.41130125 176.62262901 -192.53738048 174.23629228 -190.33203125 171.42578125 C-189.89246094 170.95527344 -189.45289063 170.48476563 -189 170 C-188.34 170 -187.68 170 -187 170 C-187 169.34 -187 168.68 -187 168 C-185.390625 166.34375 -185.390625 166.34375 -183.25 164.5 C-182.55390625 163.8915625 -181.8578125 163.283125 -181.140625 162.65625 C-179.15539208 161.12023037 -177.28127955 160.0276034 -175 159 C-175 158.34 -175 157.68 -175 157 C-173.42578125 155.30859375 -173.42578125 155.30859375 -171.3125 153.4375 C-170.62800781 152.81746094 -169.94351563 152.19742188 -169.23828125 151.55859375 C-166.78247738 149.84853137 -164.94283389 149.3762292 -162 149 C-161.89349121 148.40147217 -161.78698242 147.80294434 -161.67724609 147.1862793 C-160.9054721 144.69484594 -160.07164415 143.76258472 -158.1640625 142.01953125 C-157.59429688 141.49552734 -157.02453125 140.97152344 -156.4375 140.43164062 C-155.839375 139.89732422 -155.24125 139.36300781 -154.625 138.8125 C-154.03460937 138.26658203 -153.44421875 137.72066406 -152.8359375 137.15820312 C-148.41118823 133.13706274 -148.41118823 133.13706274 -145 132 C-145 131.34 -145 130.68 -145 130 C-140.52941176 126 -140.52941176 126 -138 126 C-138 125.34 -138 124.68 -138 124 C-136.390625 122.34375 -136.390625 122.34375 -134.25 120.5 C-133.55390625 119.8915625 -132.8578125 119.283125 -132.140625 118.65625 C-130.15539208 117.12023037 -128.28127955 116.0276034 -126 115 C-126 114.34 -126 113.68 -126 113 C-120.52380952 108 -120.52380952 108 -118 108 C-118 107.34 -118 106.68 -118 106 C-116.390625 104.34375 -116.390625 104.34375 -114.25 102.5 C-113.55390625 101.8915625 -112.8578125 101.283125 -112.140625 100.65625 C-110.15539208 99.12023037 -108.28127955 98.0276034 -106 97 C-106 96.34 -106 95.68 -106 95 C-104.40324822 93.58829235 -102.74486398 92.24600532 -101.0625 90.9375 C-96.37139181 87.19427339 -92.13175317 83.24092185 -87.94140625 78.953125 C-85.75977405 76.758324 -83.54102798 74.7710195 -81 73 C-80.34 73 -79.68 73 -79 73 C-79 72.34 -79 71.68 -79 71 C-77.390625 69.34375 -77.390625 69.34375 -75.25 67.5 C-74.55390625 66.8915625 -73.8578125 66.283125 -73.140625 65.65625 C-71.15539208 64.12023037 -69.28127955 63.0276034 -67 62 C-67 61.34 -67 60.68 -67 60 C-65.3203125 58.2734375 -65.3203125 58.2734375 -63.125 56.375 C-62.40570312 55.74335938 -61.68640625 55.11171875 -60.9453125 54.4609375 C-59 53 -59 53 -57 53 C-57 52.34 -57 51.68 -57 51 C-55.3623728 49.54597658 -53.66265804 48.16151322 -51.9375 46.8125 C-47.77460622 43.49720572 -43.95668045 40.11466034 -40.33984375 36.21484375 C-39 35 -39 35 -37 35 C-37 34.34 -37 33.68 -37 33 C-36.34 33 -35.68 33 -35 33 C-35 32.34 -35 31.68 -35 31 C-33.09375 29.265625 -33.09375 29.265625 -30.5 27.25 C-29.13875 26.18265625 -29.13875 26.18265625 -27.75 25.09375 C-24.74306092 22.80437592 -21.69459625 20.58230067 -18.59375 18.421875 C-16.88785056 17.0846253 -16.88785056 17.0846253 -16.08203125 15.07421875 C-14.62561606 12.28231814 -12.68790321 10.95560888 -10.1875 9.0625 C-7.28822378 6.82100754 -4.48882535 4.63386823 -1.9375 2 C-1.298125 1.34 -0.65875 0.68 0 0 Z " fill="#FEFEFE" transform="translate(929,319)"/>
<path d="M0 0 C187.11 0 374.22 0 567 0 C567 0.66 567 1.32 567 2 C565.35 2.66 563.7 3.32 562 4 C562 4.66 562 5.32 562 6 C560.52855732 7.28788243 558.9954285 8.50570327 557.4375 9.6875 C553.42310967 12.80221136 549.82975159 16.02949829 546.375 19.75 C545 21 545 21 543 21 C543 21.66 543 22.32 543 23 C537.52380952 28 537.52380952 28 535 28 C535 28.66 535 29.32 535 30 C533.390625 31.65625 533.390625 31.65625 531.25 33.5 C530.55390625 34.1084375 529.8578125 34.716875 529.140625 35.34375 C527.15539208 36.87976963 525.28127955 37.9723966 523 39 C523 39.66 523 40.32 523 41 C518.52941176 45 518.52941176 45 516 45 C516 45.66 516 46.32 516 47 C514.6015625 48.41015625 514.6015625 48.41015625 512.625 50.0625 C508.34165541 53.68804524 504.21627867 57.46199548 500.1015625 61.27734375 C498 63 498 63 496 63 C496 63.66 496 64.32 496 65 C494.671875 66.33984375 494.671875 66.33984375 492.75 67.9375 C490.06723221 70.20679462 487.43344885 72.50670994 484.8671875 74.90625 C484.33125977 75.40648682 483.79533203 75.90672363 483.24316406 76.42211914 C482.17155617 77.4256602 481.1031417 78.4326231 480.03808594 79.44311523 C476.22069869 83 476.22069869 83 474 83 C474 83.66 474 84.32 474 85 C472.3623728 86.45402342 470.66265804 87.83848678 468.9375 89.1875 C464.77460622 92.50279428 460.95668045 95.88533966 457.33984375 99.78515625 C456 101 456 101 454 101 C454 101.66 454 102.32 454 103 C449.52941176 107 449.52941176 107 447 107 C446.9071875 107.60328125 446.814375 108.2065625 446.71875 108.828125 C445.82192404 111.53809911 444.84352262 112.1690522 442.5 113.75 C438.32247457 116.69085725 434.62044092 119.98377099 430.8828125 123.4609375 C429 125 429 125 427 125 C427 125.66 427 126.32 427 127 C425.671875 128.33984375 425.671875 128.33984375 423.75 129.9375 C420.09024325 133.04569767 416.52711678 136.24291768 413 139.5 C405.87913314 146.04271497 405.87913314 146.04271497 402.5 149.0625 C401.9121875 149.58972656 401.324375 150.11695313 400.71875 150.66015625 C398.90419672 152.07468301 397.08720136 153.04336604 395 154 C395 154.66 395 155.32 395 156 C393.30096977 157.51740976 391.53927277 158.965128 389.75 160.375 C386.94686688 162.59229313 384.26298803 164.7305752 381.765625 167.2890625 C380 169 380 169 378 169 C378 169.66 378 170.32 378 171 C376.390625 172.65625 376.390625 172.65625 374.25 174.5 C373.55390625 175.1084375 372.8578125 175.716875 372.140625 176.34375 C370.15539208 177.87976963 368.28127955 178.9723966 366 180 C366 180.66 366 181.32 366 182 C360.52380952 187 360.52380952 187 358 187 C358 187.66 358 188.32 358 189 C356.390625 190.65625 356.390625 190.65625 354.25 192.5 C353.55390625 193.1084375 352.8578125 193.716875 352.140625 194.34375 C350.15539208 195.87976963 348.28127955 196.9723966 346 198 C346 198.66 346 199.32 346 200 C341.52941176 204 341.52941176 204 339 204 C339 204.66 339 205.32 339 206 C337.6015625 207.41015625 337.6015625 207.41015625 335.625 209.0625 C331.34165541 212.68804524 327.21627867 216.46199548 323.1015625 220.27734375 C321 222 321 222 319 222 C318.9175 222.5775 318.835 223.155 318.75 223.75 C317.50717783 227.47846652 315.0329645 229.4077438 311.68359375 231.328125 C307.74126463 233.7841903 304.58095633 236.96512801 301.20703125 240.13671875 C299 242 299 242 297 242 C297 242.66 297 243.32 297 244 C295.3203125 245.7265625 295.3203125 245.7265625 293.125 247.625 C292.40570312 248.25664063 291.68640625 248.88828125 290.9453125 249.5390625 C289 251 289 251 287 251 C287 251.66 287 252.32 287 253 C283.98968256 253.93423645 283.13349732 254.04449911 280 253 C277.74803204 250.86063044 275.60637708 248.6569085 273.5 246.375 C271.98155589 244.87862934 271.98155589 244.87862934 269.7734375 243.74609375 C266.55191947 241.7178986 263.87669441 239.2919318 261.125 236.6875 C260.06470436 235.69694998 259.00351182 234.7073591 257.94140625 233.71875 C257.43496582 233.24695313 256.92852539 232.77515625 256.40673828 232.2890625 C254.67091117 230.69843995 252.87720094 229.187121 251.0625 227.6875 C247.9577925 225.08257468 245.55471777 222.13865326 243 219 C242.34 218.67 241.68 218.34 241 218 C241 217.34 241 216.68 241 216 C240.443125 215.773125 239.88625 215.54625 239.3125 215.3125 C236.98927282 213.9939116 235.39166078 212.47747066 233.55078125 210.5625 C231.59627002 208.59321916 229.56008394 206.73351686 227.5 204.875 C226.7678125 204.21242188 226.035625 203.54984375 225.28125 202.8671875 C223.06285806 200.95233992 223.06285806 200.95233992 220.58203125 199.5859375 C217.43565836 197.65336958 214.85637763 195.27455576 212.1875 192.75 C211.12570306 191.75966234 210.06320238 190.77007866 209 189.78125 C208.48695313 189.30300781 207.97390625 188.82476562 207.4453125 188.33203125 C205.56160828 186.59596871 203.63022992 184.91953352 201.6875 183.25 C199.23943022 181.13302163 196.93824852 178.95006569 194.6875 176.625 C191.90697444 173.79426179 188.96847403 171.2971282 185.875 168.8125 C181.44534096 165.24177762 177.18691322 161.53637965 173 157.6875 C172.44812012 157.18387939 171.89624023 156.68025879 171.32763672 156.16137695 C169.16581925 154.15779836 167.16442776 152.22814352 165.4375 149.83203125 C163.60961085 147.502466 161.54421599 146.5095927 159 145 C156.88914617 143.15749849 154.84166356 141.30232653 152.8125 139.375 C151.65412597 138.28985182 150.49526754 137.2052205 149.3359375 136.12109375 C148.76842773 135.5885498 148.20091797 135.05600586 147.61621094 134.50732422 C145.41568602 132.45505219 143.17979945 130.4439589 140.9375 128.4375 C124.37826554 113.57182361 124.37826554 113.57182361 117.03515625 105.875 C114.84282052 103.85518973 112.55666974 102.51941546 110 101 C108.15625 99.31640625 108.15625 99.31640625 106.5 97.5625 C104.47173579 95.46368747 102.54410434 93.63735573 100.25 91.8125 C98 90 98 90 96.5 87.9375 C95.08698285 85.86248753 95.08698285 85.86248753 92.75 84.6875 C90.31066791 83.19063713 88.82742613 81.90683102 86.875 79.875 C84.00460308 76.90519539 80.98315984 74.31994757 77.75 71.75 C72.52700278 67.56583096 67.92668525 63.01629851 63.3125 58.1875 C61.12042689 55.80558366 61.12042689 55.80558366 58 55 C56.28961189 53.37823304 54.6313925 51.70120959 53 50 C51.89266497 48.90935678 50.7818157 47.82227316 49.66796875 46.73828125 C48.50775071 45.59641694 47.34759529 44.45448901 46.1875 43.3125 C45.59001953 42.73177734 44.99253906 42.15105469 44.37695312 41.55273438 C42.87985327 40.07274424 41.43511269 38.54017218 40 37 C40 36.34 40 35.68 40 35 C39.443125 34.95875 38.88625 34.9175 38.3125 34.875 C36 34 36 34 33.5625 31.0625 C31.3480258 27.91528453 31.3480258 27.91528453 28.62573242 27.07836914 C25.46539489 25.78044158 23.80103112 24.12810173 21.42578125 21.68359375 C20.59369141 20.83732422 19.76160156 19.99105469 18.90429688 19.11914062 C18.04900391 18.23419922 17.19371094 17.34925781 16.3125 16.4375 C14.60236896 14.68413888 12.89023074 12.93273249 11.17578125 11.18359375 C10.42208252 10.40556396 9.66838379 9.62753418 8.8918457 8.82592773 C7.12379594 6.9371646 7.12379594 6.9371646 5 6 C5 5.34 5 4.68 5 4 C4.360625 3.896875 3.72125 3.79375 3.0625 3.6875 C2.381875 3.460625 1.70125 3.23375 1 3 C0.67 2.01 0.34 1.02 0 0 Z " fill="#FEFEFE" transform="translate(268,309)"/>
<path d="M0 0 C3.75193062 1.31186385 6.27355238 2.88757835 9.25 5.5 C16.29568689 11.25432199 24.07915221 15.57881496 32 20 C32.9168457 20.51256348 33.83369141 21.02512695 34.77832031 21.55322266 C81.2763654 47.41746836 129.52354661 64.11323412 182.53466797 69.72802734 C187.16719171 70.23908215 191.7764418 70.91606264 196.390625 71.5703125 C262.19705708 79.40441156 350.54912256 69.0384449 407 32 C409.90669885 34.52652968 411.32114096 37.31122436 413.00390625 40.75 C413.57488037 41.90677246 414.14585449 43.06354492 414.73413086 44.25537109 C415.03253876 44.86660828 415.33094666 45.47784546 415.63839722 46.10760498 C417.19696134 49.29926184 418.77500954 52.48126336 420.3515625 55.6640625 C420.66445724 56.29688141 420.97735199 56.92970032 421.29972839 57.58169556 C423.93047392 62.89057889 426.65534119 68.14423371 429.4375 73.375 C432.37708684 78.91588553 435.29657129 84.46385568 438.125 90.0625 C438.96417969 91.71958984 438.96417969 91.71958984 439.8203125 93.41015625 C441 96 441 96 441 98 C427.5939777 106.3089409 414.21654218 112.72367725 399.31152344 117.85839844 C395.75452387 119.08462448 392.20936399 120.34193774 388.6640625 121.6015625 C386.15208753 122.48739394 383.63864761 123.36891073 381.125 124.25 C379.98611328 124.65041504 378.84722656 125.05083008 377.67382812 125.46337891 C362.17816344 130.8035801 346.61135591 134.69874154 330.5 137.625 C328.95169466 137.91337472 327.40351724 138.2024371 325.85546875 138.4921875 C322.00432838 139.2092225 318.15011048 139.90713368 314.29321289 140.59249878 C312.76861054 140.86341882 311.24435473 141.13629657 309.72045898 141.41116333 C298.67678638 143.39400455 287.68524681 144.80937721 276.5 145.6875 C275.71706573 145.75070435 274.93413147 145.81390869 274.12747192 145.87902832 C257.06904374 147.2308793 240.09968997 147.37659331 223 147 C222.04464355 146.98453125 221.08928711 146.9690625 220.10498047 146.953125 C142.87687066 145.53147619 49.06669722 118.62945652 -10.83984375 68.79296875 C-14.12827495 66.06351139 -17.56620303 63.54188758 -21 61 C-19.02804714 53.35648324 -16.68288966 45.92629602 -14.0234375 38.49609375 C-13.65272125 37.45099136 -13.282005 36.40588898 -12.90005493 35.32911682 C-12.12371862 33.14281781 -11.34548842 30.95719044 -10.56542969 28.7722168 C-9.3675653 25.41667339 -8.17548618 22.0591177 -6.984375 18.70117188 C-6.22689378 16.57019471 -5.46909291 14.43933114 -4.7109375 12.30859375 C-4.3536557 11.30348251 -3.9963739 10.29837128 -3.62826538 9.26280212 C-3.2976712 8.3374617 -2.96707703 7.41212128 -2.62646484 6.45874023 C-2.19036392 5.23609718 -2.19036392 5.23609718 -1.74545288 3.98875427 C-1 2 -1 2 0 0 Z " fill="#4180DB" transform="translate(344,614)"/>
<path d="M0 0 C0.66 0.33 1.32 0.66 2 1 C-0.39054855 5.93050639 -4.27284805 10.21219244 -9 13 C-11.7578125 12.6953125 -11.7578125 12.6953125 -14 12 C-14 11.34 -14 10.68 -14 10 C-14.66 10 -15.32 10 -16 10 C-17.38938077 8.03852126 -18.7260411 6.03833424 -20 4 C-18.0625 4.8125 -18.0625 4.8125 -16 6 C-15.67 6.99 -15.34 7.98 -15 9 C-12.69 9 -10.38 9 -8 9 C-8 8.34 -8 7.68 -8 7 C-6.25 5.2734375 -6.25 5.2734375 -4 3.375 C-3.2575 2.74335937 -2.515 2.11171875 -1.75 1.4609375 C-0.88375 0.73777344 -0.88375 0.73777344 0 0 Z " fill="#86AEE8" transform="translate(563,553)"/>
<path d="M0 0 C0.66 0.33 1.32 0.66 2 1 C0.71034824 2.37562854 -0.62689293 3.70766393 -2 5 C-2.66 5 -3.32 5 -4 5 C-4.061875 5.598125 -4.12375 6.19625 -4.1875 6.8125 C-5.33938899 9.91373958 -7.06759592 10.64108103 -10 12 C-10.66 11.67 -11.32 11.34 -12 11 C-10.37660195 9.29115995 -8.70680947 7.62553283 -7 6 C-6.34 6 -5.68 6 -5 6 C-5 5.34 -5 4.68 -5 4 C-3.37373596 2.61767557 -1.7074998 1.28062485 0 0 Z " fill="#89B0E8" transform="translate(612,509)"/>
<path d="M0 0 C0.66 0.33 1.32 0.66 2 1 C-0.10148204 4.98175544 -2.36905358 7.35039045 -6 10 C-6.33 9.34 -6.66 8.68 -7 8 C-6.34 8 -5.68 8 -5 8 C-4.9175 7.4225 -4.835 6.845 -4.75 6.25 C-3.79468987 3.3840696 -2.21530827 2.0009236 0 0 Z " fill="#6799E2" transform="translate(563,553)"/>
<path d="M0 0 C0.66 0.33 1.32 0.66 2 1 C1.43410156 1.47050781 0.86820313 1.94101562 0.28515625 2.42578125 C-0.81505859 3.35970703 -0.81505859 3.35970703 -1.9375 4.3125 C-3.03384766 5.23482422 -3.03384766 5.23482422 -4.15234375 6.17578125 C-6.23820366 7.95975519 -6.23820366 7.95975519 -7 11 C-8.65 11.33 -10.3 11.66 -12 12 C-8.32167983 7.47384007 -4.58913637 3.60575001 0 0 Z " fill="#91B5EA" transform="translate(740,394)"/>
<path d="M0 0 C0.33 0.99 0.66 1.98 1 3 C-0.26391488 4.00873016 -1.53640883 5.00671822 -2.8125 6 C-3.87404297 6.8353125 -3.87404297 6.8353125 -4.95703125 7.6875 C-7 9 -7 9 -10 9 C-9.0479279 7.99403703 -8.08812654 6.99538437 -7.125 6 C-6.32449219 5.1646875 -6.32449219 5.1646875 -5.5078125 4.3125 C-4 3 -4 3 -2 3 C-2 2.34 -2 1.68 -2 1 C-1.34 0.67 -0.68 0.34 0 0 Z " fill="#7BA7E6" transform="translate(665,462)"/>
<path d="M0 0 C0.66 0.33 1.32 0.66 2 1 C0.92807816 2.3218362 -0.15802695 3.63217927 -1.25 4.9375 C-1.85328125 5.66839844 -2.4565625 6.39929688 -3.078125 7.15234375 C-5.10741134 9.10326334 -6.254407 9.61731779 -9 10 C-8.06409496 8.8944811 -7.12620142 7.79064547 -6.1875 6.6875 C-5.66542969 6.07261719 -5.14335938 5.45773437 -4.60546875 4.82421875 C-3.12827531 3.14575321 -1.59960869 1.56117966 0 0 Z " fill="#B1CAF0" transform="translate(843,396)"/>
<path d="M0 0 C0.33 0.99 0.66 1.98 1 3 C-0.62339805 4.70884005 -2.29319053 6.37446717 -4 8 C-4.66 8 -5.32 8 -6 8 C-6 7.01 -6 6.02 -6 5 C-5.34 5 -4.68 5 -4 5 C-4 4.34 -4 3.68 -4 3 C-2 1.375 -2 1.375 0 0 Z " fill="#CEDEF5" transform="translate(559,652)"/>
<path d="M0 0 C4.2742558 1.5830577 6.26531794 4.50568404 9 8 C2.1257764 5.28649068 2.1257764 5.28649068 0.875 2.4375 C0.58625 1.633125 0.2975 0.82875 0 0 Z " fill="#88AFE8" transform="translate(496,515)"/>
<path d="M0 0 C0.99 0 1.98 0 3 0 C3 0.66 3 1.32 3 2 C2.01 2 1.02 2 0 2 C0 1.34 0 0.68 0 0 Z " fill="#4180DB" transform="translate(994,238)"/>
<path d="M0 0 C0.66 0 1.32 0 2 0 C2 0.99 2 1.98 2 3 C1.34 3 0.68 3 0 3 C0 2.01 0 1.02 0 0 Z " fill="#4180DB" transform="translate(83,238)"/>
</svg>
